<mxfile host="app.diagrams.net" modified="2023-12-21T21:07:34.558Z" agent="Mozilla/5.0 (Windows NT 10.0; Win64; x64) AppleWebKit/537.36 (KHTML, like Gecko) Chrome/120.0.0.0 Safari/537.36 Edg/120.0.0.0" etag="Iu-yZekLboFzWkOIUTe1" version="22.1.11" type="device">
  <diagram name="Page-1" id="9f46799a-70d6-7492-0946-bef42562c5a5">
    <mxGraphModel dx="1822" dy="1049" grid="1" gridSize="10" guides="1" tooltips="1" connect="1" arrows="1" fold="1" page="1" pageScale="1" pageWidth="1100" pageHeight="850" background="none" math="0" shadow="0">
      <root>
        <mxCell id="0" />
        <mxCell id="1" parent="0" />
        <mxCell id="sUcjQJHlJMkvDkXxaXbN-1" value="Hotel" style="swimlane;fontStyle=1;align=center;verticalAlign=top;childLayout=stackLayout;horizontal=1;startSize=26;horizontalStack=0;resizeParent=1;resizeParentMax=0;resizeLast=0;collapsible=1;marginBottom=0;whiteSpace=wrap;html=1;" vertex="1" parent="1">
          <mxGeometry x="470" y="10" width="160" height="290" as="geometry" />
        </mxCell>
        <mxCell id="sUcjQJHlJMkvDkXxaXbN-2" value="+ name: String=&quot;Maestral&quot;&lt;br&gt;+ hotelid: int&lt;br&gt;+ address: String&lt;br&gt;+ city: String&lt;br&gt;+phone:int" style="text;strokeColor=none;fillColor=none;align=left;verticalAlign=top;spacingLeft=4;spacingRight=4;overflow=hidden;rotatable=0;points=[[0,0.5],[1,0.5]];portConstraint=eastwest;whiteSpace=wrap;html=1;" vertex="1" parent="sUcjQJHlJMkvDkXxaXbN-1">
          <mxGeometry y="26" width="160" height="94" as="geometry" />
        </mxCell>
        <mxCell id="sUcjQJHlJMkvDkXxaXbN-3" value="" style="line;strokeWidth=1;fillColor=none;align=left;verticalAlign=middle;spacingTop=-1;spacingLeft=3;spacingRight=3;rotatable=0;labelPosition=right;points=[];portConstraint=eastwest;strokeColor=inherit;" vertex="1" parent="sUcjQJHlJMkvDkXxaXbN-1">
          <mxGeometry y="120" width="160" height="8" as="geometry" />
        </mxCell>
        <mxCell id="sUcjQJHlJMkvDkXxaXbN-4" value="+ getname()&lt;br&gt;+ setname(String)&lt;br&gt;+ gethotelid()&lt;br&gt;+ sethotelid(int)&lt;br&gt;+ getaddress()&lt;br&gt;+ setaddress(String)&lt;br&gt;+ getcity()&lt;br&gt;+ setcity(String)&lt;br&gt;+ getPhone()&lt;br&gt;+ setPhone(int)&lt;br&gt;" style="text;strokeColor=none;fillColor=none;align=left;verticalAlign=top;spacingLeft=4;spacingRight=4;overflow=hidden;rotatable=0;points=[[0,0.5],[1,0.5]];portConstraint=eastwest;whiteSpace=wrap;html=1;" vertex="1" parent="sUcjQJHlJMkvDkXxaXbN-1">
          <mxGeometry y="128" width="160" height="162" as="geometry" />
        </mxCell>
        <mxCell id="sUcjQJHlJMkvDkXxaXbN-9" value="Room" style="swimlane;fontStyle=1;align=center;verticalAlign=top;childLayout=stackLayout;horizontal=1;startSize=26;horizontalStack=0;resizeParent=1;resizeParentMax=0;resizeLast=0;collapsible=1;marginBottom=0;whiteSpace=wrap;html=1;" vertex="1" parent="1">
          <mxGeometry x="60" y="320" width="160" height="320" as="geometry" />
        </mxCell>
        <mxCell id="sUcjQJHlJMkvDkXxaXbN-10" value="+ hotelid: int&lt;br&gt;+ roomID: int&lt;br&gt;+ userID: int&amp;nbsp;&lt;br&gt;+ roomNumber: int&lt;br&gt;+ description: String&lt;br&gt;+ clean: boolean" style="text;strokeColor=none;fillColor=none;align=left;verticalAlign=top;spacingLeft=4;spacingRight=4;overflow=hidden;rotatable=0;points=[[0,0.5],[1,0.5]];portConstraint=eastwest;whiteSpace=wrap;html=1;" vertex="1" parent="sUcjQJHlJMkvDkXxaXbN-9">
          <mxGeometry y="26" width="160" height="94" as="geometry" />
        </mxCell>
        <mxCell id="sUcjQJHlJMkvDkXxaXbN-11" value="" style="line;strokeWidth=1;fillColor=none;align=left;verticalAlign=middle;spacingTop=-1;spacingLeft=3;spacingRight=3;rotatable=0;labelPosition=right;points=[];portConstraint=eastwest;strokeColor=inherit;" vertex="1" parent="sUcjQJHlJMkvDkXxaXbN-9">
          <mxGeometry y="120" width="160" height="8" as="geometry" />
        </mxCell>
        <mxCell id="sUcjQJHlJMkvDkXxaXbN-12" value="+ gethotelid()&lt;br&gt;+ sethotelid(int)&lt;br&gt;+ getroomID()&lt;br&gt;+ setroomID(int)&lt;br&gt;+ getuserID()&lt;br&gt;+ setuserID(int)&lt;br&gt;+ getroomNumber()&lt;br&gt;+ setroomNumber(int)&lt;br&gt;+ getdescription()&lt;br&gt;+setdescription(description)&lt;br&gt;+ getclean()&lt;br&gt;+ markclean()&lt;br&gt;+ markdirty()&lt;br&gt;&lt;br&gt;" style="text;strokeColor=none;fillColor=none;align=left;verticalAlign=top;spacingLeft=4;spacingRight=4;overflow=hidden;rotatable=0;points=[[0,0.5],[1,0.5]];portConstraint=eastwest;whiteSpace=wrap;html=1;" vertex="1" parent="sUcjQJHlJMkvDkXxaXbN-9">
          <mxGeometry y="128" width="160" height="192" as="geometry" />
        </mxCell>
        <mxCell id="sUcjQJHlJMkvDkXxaXbN-15" style="edgeStyle=orthogonalEdgeStyle;rounded=0;orthogonalLoop=1;jettySize=auto;html=1;entryX=0.999;entryY=0.371;entryDx=0;entryDy=0;entryPerimeter=0;" edge="1" parent="1" source="sUcjQJHlJMkvDkXxaXbN-2" target="sUcjQJHlJMkvDkXxaXbN-10">
          <mxGeometry relative="1" as="geometry" />
        </mxCell>
        <mxCell id="sUcjQJHlJMkvDkXxaXbN-16" value="Room Type" style="swimlane;fontStyle=1;align=center;verticalAlign=top;childLayout=stackLayout;horizontal=1;startSize=26;horizontalStack=0;resizeParent=1;resizeParentMax=0;resizeLast=0;collapsible=1;marginBottom=0;whiteSpace=wrap;html=1;" vertex="1" parent="1">
          <mxGeometry x="40" y="760" width="160" height="300" as="geometry" />
        </mxCell>
        <mxCell id="sUcjQJHlJMkvDkXxaXbN-17" value="+ roomID: int&lt;br&gt;+ name: String&lt;br&gt;+ price: double&lt;br&gt;+ capacity: description&lt;br&gt;+ clean: boolean&lt;br&gt;" style="text;strokeColor=none;fillColor=none;align=left;verticalAlign=top;spacingLeft=4;spacingRight=4;overflow=hidden;rotatable=0;points=[[0,0.5],[1,0.5]];portConstraint=eastwest;whiteSpace=wrap;html=1;" vertex="1" parent="sUcjQJHlJMkvDkXxaXbN-16">
          <mxGeometry y="26" width="160" height="94" as="geometry" />
        </mxCell>
        <mxCell id="sUcjQJHlJMkvDkXxaXbN-18" value="" style="line;strokeWidth=1;fillColor=none;align=left;verticalAlign=middle;spacingTop=-1;spacingLeft=3;spacingRight=3;rotatable=0;labelPosition=right;points=[];portConstraint=eastwest;strokeColor=inherit;" vertex="1" parent="sUcjQJHlJMkvDkXxaXbN-16">
          <mxGeometry y="120" width="160" height="8" as="geometry" />
        </mxCell>
        <mxCell id="sUcjQJHlJMkvDkXxaXbN-19" value="+ getroomID()&lt;br&gt;+ setroomID(id)&lt;br&gt;+ getname()&lt;br&gt;+ setname(name)&lt;br&gt;+ getprice()&lt;br&gt;+ setprice(price)&lt;br&gt;+ getcapacity()&lt;br&gt;+ setcapacity(capacity)&lt;br&gt;+ getclean()&lt;br&gt;+ markclean()&lt;br&gt;+ markdirty()" style="text;strokeColor=none;fillColor=none;align=left;verticalAlign=top;spacingLeft=4;spacingRight=4;overflow=hidden;rotatable=0;points=[[0,0.5],[1,0.5]];portConstraint=eastwest;whiteSpace=wrap;html=1;" vertex="1" parent="sUcjQJHlJMkvDkXxaXbN-16">
          <mxGeometry y="128" width="160" height="172" as="geometry" />
        </mxCell>
        <mxCell id="sUcjQJHlJMkvDkXxaXbN-28" style="edgeStyle=orthogonalEdgeStyle;rounded=0;orthogonalLoop=1;jettySize=auto;html=1;exitX=0;exitY=0.25;exitDx=0;exitDy=0;entryX=1;entryY=0.5;entryDx=0;entryDy=0;" edge="1" parent="1" source="sUcjQJHlJMkvDkXxaXbN-26" target="sUcjQJHlJMkvDkXxaXbN-10">
          <mxGeometry relative="1" as="geometry">
            <mxPoint x="260" y="370" as="targetPoint" />
          </mxGeometry>
        </mxCell>
        <mxCell id="sUcjQJHlJMkvDkXxaXbN-36" style="edgeStyle=orthogonalEdgeStyle;rounded=0;orthogonalLoop=1;jettySize=auto;html=1;exitX=0;exitY=0;exitDx=0;exitDy=0;" edge="1" parent="1" source="sUcjQJHlJMkvDkXxaXbN-26" target="sUcjQJHlJMkvDkXxaXbN-32">
          <mxGeometry relative="1" as="geometry" />
        </mxCell>
        <mxCell id="sUcjQJHlJMkvDkXxaXbN-26" value="&lt;p style=&quot;margin:0px;margin-top:4px;text-align:center;&quot;&gt;&lt;b&gt;Booking/Reservation&lt;/b&gt;&lt;/p&gt;&lt;hr size=&quot;1&quot;&gt;&lt;p style=&quot;margin:0px;margin-left:4px;&quot;&gt;+ hotelID: int&lt;/p&gt;&lt;p style=&quot;margin:0px;margin-left:4px;&quot;&gt;+ roomID: int&lt;/p&gt;&lt;p style=&quot;margin:0px;margin-left:4px;&quot;&gt;+ userID: int&lt;/p&gt;&lt;p style=&quot;margin:0px;margin-left:4px;&quot;&gt;+ paymentID: int&lt;/p&gt;&lt;p style=&quot;margin:0px;margin-left:4px;&quot;&gt;+ paymentStatus: boolean&lt;/p&gt;&lt;p style=&quot;margin:0px;margin-left:4px;&quot;&gt;+ bookingDate: Date&lt;/p&gt;&lt;p style=&quot;margin:0px;margin-left:4px;&quot;&gt;+ checkIn: Date&lt;/p&gt;&lt;p style=&quot;margin:0px;margin-left:4px;&quot;&gt;+ checkOut: Date&lt;/p&gt;&lt;hr size=&quot;1&quot;&gt;&lt;p style=&quot;margin:0px;margin-left:4px;&quot;&gt;+ gethotelID()&lt;/p&gt;&lt;p style=&quot;margin:0px;margin-left:4px;&quot;&gt;+ getroomID()&lt;/p&gt;&lt;p style=&quot;margin:0px;margin-left:4px;&quot;&gt;+ getuserID()&lt;/p&gt;&lt;p style=&quot;margin:0px;margin-left:4px;&quot;&gt;+ getpaymentID()&lt;/p&gt;&lt;p style=&quot;margin:0px;margin-left:4px;&quot;&gt;+ getpaymentStatus()&lt;/p&gt;&lt;p style=&quot;margin:0px;margin-left:4px;&quot;&gt;+ setpaymentStatus(status)&lt;/p&gt;&lt;p style=&quot;margin:0px;margin-left:4px;&quot;&gt;+ getbookingDate()&lt;/p&gt;&lt;p style=&quot;margin:0px;margin-left:4px;&quot;&gt;+ setbookingDate(Date)&lt;/p&gt;&lt;p style=&quot;margin:0px;margin-left:4px;&quot;&gt;+ getcheckIn()&lt;/p&gt;&lt;p style=&quot;margin:0px;margin-left:4px;&quot;&gt;+ setcheckIn(chechkin)&lt;/p&gt;&lt;p style=&quot;margin:0px;margin-left:4px;&quot;&gt;+ getcheckout()&lt;/p&gt;&lt;p style=&quot;margin:0px;margin-left:4px;&quot;&gt;+ setcheckout(chechkout)&lt;/p&gt;" style="verticalAlign=top;align=left;overflow=fill;fontSize=12;fontFamily=Helvetica;html=1;whiteSpace=wrap;" vertex="1" parent="1">
          <mxGeometry x="530" y="770" width="160" height="330" as="geometry" />
        </mxCell>
        <mxCell id="sUcjQJHlJMkvDkXxaXbN-29" style="edgeStyle=orthogonalEdgeStyle;rounded=0;orthogonalLoop=1;jettySize=auto;html=1;exitX=0;exitY=0.5;exitDx=0;exitDy=0;entryX=0;entryY=0.681;entryDx=0;entryDy=0;entryPerimeter=0;" edge="1" parent="1" source="sUcjQJHlJMkvDkXxaXbN-10" target="sUcjQJHlJMkvDkXxaXbN-17">
          <mxGeometry relative="1" as="geometry">
            <mxPoint x="10" y="850" as="targetPoint" />
          </mxGeometry>
        </mxCell>
        <mxCell id="sUcjQJHlJMkvDkXxaXbN-31" value="user" style="swimlane;fontStyle=1;align=center;verticalAlign=top;childLayout=stackLayout;horizontal=1;startSize=26;horizontalStack=0;resizeParent=1;resizeParentMax=0;resizeLast=0;collapsible=1;marginBottom=0;whiteSpace=wrap;html=1;" vertex="1" parent="1">
          <mxGeometry x="390" y="320" width="160" height="310" as="geometry" />
        </mxCell>
        <mxCell id="sUcjQJHlJMkvDkXxaXbN-32" value="+ userID: int&lt;br&gt;+ name: String&lt;br&gt;+ address: String&lt;br&gt;+ city: String&lt;br&gt;+ country:String&lt;br&gt;+ phone:int" style="text;strokeColor=none;fillColor=none;align=left;verticalAlign=top;spacingLeft=4;spacingRight=4;overflow=hidden;rotatable=0;points=[[0,0.5],[1,0.5]];portConstraint=eastwest;whiteSpace=wrap;html=1;" vertex="1" parent="sUcjQJHlJMkvDkXxaXbN-31">
          <mxGeometry y="26" width="160" height="94" as="geometry" />
        </mxCell>
        <mxCell id="sUcjQJHlJMkvDkXxaXbN-33" value="" style="line;strokeWidth=1;fillColor=none;align=left;verticalAlign=middle;spacingTop=-1;spacingLeft=3;spacingRight=3;rotatable=0;labelPosition=right;points=[];portConstraint=eastwest;strokeColor=inherit;" vertex="1" parent="sUcjQJHlJMkvDkXxaXbN-31">
          <mxGeometry y="120" width="160" height="8" as="geometry" />
        </mxCell>
        <mxCell id="sUcjQJHlJMkvDkXxaXbN-34" value="+ getuserID()&lt;br&gt;+ setuserID(id)&lt;br&gt;+ getname()&lt;br&gt;+ setname(name)&lt;br&gt;+ getaddress()&lt;br&gt;+ setaddress(address)&amp;nbsp;&lt;br&gt;+ getcity()&lt;br&gt;+ setcity(city)&lt;br&gt;+ getcountry()&lt;br&gt;+ setcountry(country)&lt;br&gt;+ getphone()&lt;br&gt;+ setphone(phone)&lt;br&gt;" style="text;strokeColor=none;fillColor=none;align=left;verticalAlign=top;spacingLeft=4;spacingRight=4;overflow=hidden;rotatable=0;points=[[0,0.5],[1,0.5]];portConstraint=eastwest;whiteSpace=wrap;html=1;" vertex="1" parent="sUcjQJHlJMkvDkXxaXbN-31">
          <mxGeometry y="128" width="160" height="182" as="geometry" />
        </mxCell>
        <mxCell id="sUcjQJHlJMkvDkXxaXbN-35" value="«interface»&lt;br&gt;&lt;b&gt;Booking&lt;/b&gt;" style="html=1;whiteSpace=wrap;" vertex="1" parent="1">
          <mxGeometry x="555" y="720" width="110" height="50" as="geometry" />
        </mxCell>
        <mxCell id="sUcjQJHlJMkvDkXxaXbN-37" value="" style="endArrow=none;html=1;rounded=0;" edge="1" parent="1">
          <mxGeometry width="50" height="50" relative="1" as="geometry">
            <mxPoint x="300" y="110" as="sourcePoint" />
            <mxPoint x="470" y="110" as="targetPoint" />
          </mxGeometry>
        </mxCell>
        <mxCell id="sUcjQJHlJMkvDkXxaXbN-38" value="" style="endArrow=none;html=1;rounded=0;" edge="1" parent="1">
          <mxGeometry width="50" height="50" relative="1" as="geometry">
            <mxPoint x="300" y="810" as="sourcePoint" />
            <mxPoint x="300" y="110" as="targetPoint" />
          </mxGeometry>
        </mxCell>
        <mxCell id="sUcjQJHlJMkvDkXxaXbN-39" value="" style="endArrow=none;html=1;rounded=0;entryX=-0.007;entryY=0.122;entryDx=0;entryDy=0;entryPerimeter=0;" edge="1" parent="1" target="sUcjQJHlJMkvDkXxaXbN-26">
          <mxGeometry width="50" height="50" relative="1" as="geometry">
            <mxPoint x="300" y="810" as="sourcePoint" />
            <mxPoint x="320" y="810" as="targetPoint" />
          </mxGeometry>
        </mxCell>
        <mxCell id="sUcjQJHlJMkvDkXxaXbN-40" value="Reviews" style="swimlane;fontStyle=1;align=center;verticalAlign=top;childLayout=stackLayout;horizontal=1;startSize=26;horizontalStack=0;resizeParent=1;resizeParentMax=0;resizeLast=0;collapsible=1;marginBottom=0;whiteSpace=wrap;html=1;" vertex="1" parent="1">
          <mxGeometry x="280" y="860" width="160" height="262" as="geometry" />
        </mxCell>
        <mxCell id="sUcjQJHlJMkvDkXxaXbN-41" value="+ hotelID: int&lt;br&gt;+ reservationId: int&lt;br&gt;+ rating: int&lt;br&gt;+ description: String&lt;br&gt;+ dateReview: Date&lt;br&gt;+ adminResponse: String" style="text;strokeColor=none;fillColor=none;align=left;verticalAlign=top;spacingLeft=4;spacingRight=4;overflow=hidden;rotatable=0;points=[[0,0.5],[1,0.5]];portConstraint=eastwest;whiteSpace=wrap;html=1;" vertex="1" parent="sUcjQJHlJMkvDkXxaXbN-40">
          <mxGeometry y="26" width="160" height="104" as="geometry" />
        </mxCell>
        <mxCell id="sUcjQJHlJMkvDkXxaXbN-42" value="" style="line;strokeWidth=1;fillColor=none;align=left;verticalAlign=middle;spacingTop=-1;spacingLeft=3;spacingRight=3;rotatable=0;labelPosition=right;points=[];portConstraint=eastwest;strokeColor=inherit;" vertex="1" parent="sUcjQJHlJMkvDkXxaXbN-40">
          <mxGeometry y="130" width="160" height="8" as="geometry" />
        </mxCell>
        <mxCell id="sUcjQJHlJMkvDkXxaXbN-43" value="+ gethotelID()&lt;br&gt;+ sethotelID(id)&lt;br&gt;+ getreservationId()&lt;br&gt;+ setreservationId(id)&lt;br&gt;+ getrating()&lt;br&gt;+ getdateReview()&lt;br&gt;+ getadminResponse()&lt;br&gt;+ setadminResponse()" style="text;strokeColor=none;fillColor=none;align=left;verticalAlign=top;spacingLeft=4;spacingRight=4;overflow=hidden;rotatable=0;points=[[0,0.5],[1,0.5]];portConstraint=eastwest;whiteSpace=wrap;html=1;" vertex="1" parent="sUcjQJHlJMkvDkXxaXbN-40">
          <mxGeometry y="138" width="160" height="124" as="geometry" />
        </mxCell>
        <mxCell id="sUcjQJHlJMkvDkXxaXbN-45" value="" style="endArrow=classic;html=1;rounded=0;exitX=1.002;exitY=0.171;exitDx=0;exitDy=0;exitPerimeter=0;" edge="1" parent="1" source="sUcjQJHlJMkvDkXxaXbN-41">
          <mxGeometry width="50" height="50" relative="1" as="geometry">
            <mxPoint x="440" y="900" as="sourcePoint" />
            <mxPoint x="530" y="903" as="targetPoint" />
          </mxGeometry>
        </mxCell>
        <mxCell id="sUcjQJHlJMkvDkXxaXbN-46" value="Payment" style="swimlane;fontStyle=1;align=center;verticalAlign=top;childLayout=stackLayout;horizontal=1;startSize=26;horizontalStack=0;resizeParent=1;resizeParentMax=0;resizeLast=0;collapsible=1;marginBottom=0;whiteSpace=wrap;html=1;" vertex="1" parent="1">
          <mxGeometry x="810" y="680" width="210" height="380" as="geometry" />
        </mxCell>
        <mxCell id="sUcjQJHlJMkvDkXxaXbN-47" value="+ userID: int&lt;br&gt;+ firstName: String&lt;br&gt;+ lastName: String&lt;br&gt;+ reservationID: int&lt;br&gt;+ cardNumber: int&lt;br&gt;+ expirationDate: String&lt;br&gt;+ authenticationCode: int" style="text;strokeColor=none;fillColor=none;align=left;verticalAlign=top;spacingLeft=4;spacingRight=4;overflow=hidden;rotatable=0;points=[[0,0.5],[1,0.5]];portConstraint=eastwest;whiteSpace=wrap;html=1;" vertex="1" parent="sUcjQJHlJMkvDkXxaXbN-46">
          <mxGeometry y="26" width="210" height="114" as="geometry" />
        </mxCell>
        <mxCell id="sUcjQJHlJMkvDkXxaXbN-48" value="" style="line;strokeWidth=1;fillColor=none;align=left;verticalAlign=middle;spacingTop=-1;spacingLeft=3;spacingRight=3;rotatable=0;labelPosition=right;points=[];portConstraint=eastwest;strokeColor=inherit;" vertex="1" parent="sUcjQJHlJMkvDkXxaXbN-46">
          <mxGeometry y="140" width="210" height="8" as="geometry" />
        </mxCell>
        <mxCell id="sUcjQJHlJMkvDkXxaXbN-49" value="+ getuserID()&lt;br&gt;+ setuserID(id)&lt;br&gt;+ getfirstname()&lt;br&gt;+ setfirstname(firstname)&lt;br&gt;+ getlastname()&amp;nbsp;&lt;br&gt;+ setlastname(lastname)&lt;br&gt;+ getreservationID()&lt;br&gt;+ setreservationID(id)&lt;br&gt;+ getcardNumber()&lt;br&gt;+ setcardNumber(cardNumber)&lt;br&gt;+ getexpirationDate()&lt;br&gt;+ setexpirationDate(expirationdate)&lt;br&gt;+ getauthenticationCode()&lt;br&gt;+ setauthenticationCode(authCode)&amp;nbsp;" style="text;strokeColor=none;fillColor=none;align=left;verticalAlign=top;spacingLeft=4;spacingRight=4;overflow=hidden;rotatable=0;points=[[0,0.5],[1,0.5]];portConstraint=eastwest;whiteSpace=wrap;html=1;" vertex="1" parent="sUcjQJHlJMkvDkXxaXbN-46">
          <mxGeometry y="148" width="210" height="232" as="geometry" />
        </mxCell>
        <mxCell id="sUcjQJHlJMkvDkXxaXbN-51" style="edgeStyle=orthogonalEdgeStyle;rounded=0;orthogonalLoop=1;jettySize=auto;html=1;exitX=1;exitY=0.25;exitDx=0;exitDy=0;entryX=-0.007;entryY=0.654;entryDx=0;entryDy=0;entryPerimeter=0;" edge="1" parent="1" source="sUcjQJHlJMkvDkXxaXbN-26" target="sUcjQJHlJMkvDkXxaXbN-47">
          <mxGeometry relative="1" as="geometry" />
        </mxCell>
        <mxCell id="sUcjQJHlJMkvDkXxaXbN-53" value="Profile" style="swimlane;fontStyle=1;align=center;verticalAlign=top;childLayout=stackLayout;horizontal=1;startSize=26;horizontalStack=0;resizeParent=1;resizeParentMax=0;resizeLast=0;collapsible=1;marginBottom=0;whiteSpace=wrap;html=1;" vertex="1" parent="1">
          <mxGeometry x="650" y="350" width="160" height="310" as="geometry" />
        </mxCell>
        <mxCell id="sUcjQJHlJMkvDkXxaXbN-54" value="+ firstname: String&lt;br&gt;+ lastname: String&lt;br&gt;+ email: String&lt;br&gt;+ password: String&lt;br&gt;+ username: String&lt;br&gt;+ dataCreated: Date" style="text;strokeColor=none;fillColor=none;align=left;verticalAlign=top;spacingLeft=4;spacingRight=4;overflow=hidden;rotatable=0;points=[[0,0.5],[1,0.5]];portConstraint=eastwest;whiteSpace=wrap;html=1;" vertex="1" parent="sUcjQJHlJMkvDkXxaXbN-53">
          <mxGeometry y="26" width="160" height="94" as="geometry" />
        </mxCell>
        <mxCell id="sUcjQJHlJMkvDkXxaXbN-55" value="" style="line;strokeWidth=1;fillColor=none;align=left;verticalAlign=middle;spacingTop=-1;spacingLeft=3;spacingRight=3;rotatable=0;labelPosition=right;points=[];portConstraint=eastwest;strokeColor=inherit;" vertex="1" parent="sUcjQJHlJMkvDkXxaXbN-53">
          <mxGeometry y="120" width="160" height="8" as="geometry" />
        </mxCell>
        <mxCell id="sUcjQJHlJMkvDkXxaXbN-56" value="+ getfirstName()&lt;br&gt;+ setfirstName(firstName)&lt;br&gt;+ getLastName()&lt;br&gt;+ setLastName(lastName)&lt;br&gt;+ getemail()&lt;br&gt;+ setemail(email)&lt;br&gt;+ getpassword()&lt;br&gt;+ setpassword(password)&lt;br&gt;+ getusername()&lt;br&gt;+ setusername(username)&lt;br&gt;+ getdataCreate()&lt;br&gt;+ setdataCreat(dataCreate)&lt;br&gt;&lt;br&gt;&amp;nbsp;" style="text;strokeColor=none;fillColor=none;align=left;verticalAlign=top;spacingLeft=4;spacingRight=4;overflow=hidden;rotatable=0;points=[[0,0.5],[1,0.5]];portConstraint=eastwest;whiteSpace=wrap;html=1;" vertex="1" parent="sUcjQJHlJMkvDkXxaXbN-53">
          <mxGeometry y="128" width="160" height="182" as="geometry" />
        </mxCell>
        <mxCell id="sUcjQJHlJMkvDkXxaXbN-57" style="edgeStyle=orthogonalEdgeStyle;rounded=0;orthogonalLoop=1;jettySize=auto;html=1;exitX=1;exitY=0.5;exitDx=0;exitDy=0;entryX=-0.004;entryY=0.192;entryDx=0;entryDy=0;entryPerimeter=0;" edge="1" parent="1" source="sUcjQJHlJMkvDkXxaXbN-32" target="sUcjQJHlJMkvDkXxaXbN-54">
          <mxGeometry relative="1" as="geometry">
            <Array as="points">
              <mxPoint x="550" y="370" />
              <mxPoint x="600" y="370" />
              <mxPoint x="600" y="394" />
            </Array>
          </mxGeometry>
        </mxCell>
      </root>
    </mxGraphModel>
  </diagram>
</mxfile>
